<svg xmlns="http://www.w3.org/2000/svg" viewBox="0 0 203.2 201.96"><defs><style>.cls-1{stroke:#000;stroke-miterlimit:10;}</style></defs><title>Asset 1</title><g id="Layer_2" data-name="Layer 2"><g id="Layer_17_copy_2" data-name="Layer 17 copy 2"><g id="Logo"><g id="Path_1" data-name="Path 1"><path d="M201.7,1.5,129.84,3c-9.27,11.05-13.75,16.15-16,18.54-.16.17-.79.83-1.63,1.76-1.47,1.62-3.74,4.14-6.41,7.26-2.17,2.51-9,10-11,12l-6,6c-5,4.78-5.08,5.2-10,10-2.44,2.39-6,5.79-10.52,9.81V34.28A33.92,33.92,0,0,0,43.68,2.49a40.56,40.56,0,0,0-13,0,81.14,81.14,0,0,0-19,4,72.62,72.62,0,0,1,6,15,79.3,79.3,0,0,1,2,10C22,51.28,10.7,72.48,7.43,78.63a49.53,49.53,0,0,0-5.82,19v10.46a50.63,50.63,0,0,0,28.28,40.64c2.84,1.22,5.74,2.31,8.67,3.25a98.84,98.84,0,0,0,29.89,4.79h.7a82.06,82.06,0,0,0,13.47-.91,37.84,37.84,0,0,0,9.16-2.1,25.23,25.23,0,0,1,8.17-1.86s1.13-.05,2.26-.05a49.75,49.75,0,0,1,49.72,48.19,99.44,99.44,0,0,0-49.45-97.84,10.33,10.33,0,0,0-1-.54h.95A99.11,99.11,0,0,0,166.4,78.2a100.54,100.54,0,0,0,30.69-46.06A99.21,99.21,0,0,0,201.7,1.5Z"/><path d="M201.7,0,156.79.94l-22.46.47-2.49.05a8.74,8.74,0,0,0-2.4.09c-.83.27-1.37,1.23-1.91,1.88l-1.76,2.09q-2.68,3.2-5.4,6.36c-5.19,6-10.62,11.87-15.85,17.88C99.88,35.1,95,40.22,90,45.22,82.53,52.73,75.1,60.3,67.17,67.37l2.56,1.06V39c0-5.31-.18-10.46-2-15.55A35.67,35.67,0,0,0,50.35,3.51,24.6,24.6,0,0,0,42.72.84a42.37,42.37,0,0,0-10.85,0c-3.45.45-6.89.8-10.31,1.47A84.16,84.16,0,0,0,11.23,5.05a1.51,1.51,0,0,0-.89,2.2C16.13,18.13,19.46,30.67,18.13,43c-1.07,9.91-4.5,19.56-8.77,28.51-1.5,3.15-3.27,6.17-4.73,9.34A46.08,46.08,0,0,0,.11,97.68a64.49,64.49,0,0,0,1.21,17.76,52.18,52.18,0,0,0,26.65,34,77.87,77.87,0,0,0,17.51,6A104.63,104.63,0,0,0,84,157.23c5.92-.79,11.23-3.72,17.24-3.83a48.2,48.2,0,0,1,49.16,46.68,1.5,1.5,0,0,0,3,0,100.93,100.93,0,0,0-30.67-84.57,91.86,91.86,0,0,0-20.49-15.1l-.76,2.79a101.92,101.92,0,0,0,57.37-17.4A102.5,102.5,0,0,0,196.2,39.07a100.64,100.64,0,0,0,7-37.57,1.5,1.5,0,0,0-3,0A98.78,98.78,0,0,1,181,60.38,98.06,98.06,0,0,1,133.78,95a100,100,0,0,1-32.27,5.21,1.51,1.51,0,0,0-.75,2.8,87.63,87.63,0,0,1,17.91,12.8A97.67,97.67,0,0,1,150,174.25a99.27,99.27,0,0,1,.39,25.83h3a51.71,51.71,0,0,0-28.3-44.28c-8.29-4.14-18.31-6.43-27.57-5.12-3.1.44-5.88,1.7-8.87,2.54A57.36,57.36,0,0,1,79,154.86a99,99,0,0,1-38.48-3.79,59.62,59.62,0,0,1-15.83-7A49.12,49.12,0,0,1,6.29,121.25,41.84,41.84,0,0,1,3.11,108c-.1-2.75,0-5.52,0-8.26A39.78,39.78,0,0,1,5.2,87.62c1.33-4.17,3.43-7.92,5.39-11.8a104.82,104.82,0,0,0,9.55-26.36,58.47,58.47,0,0,0,1.14-16.69,68.84,68.84,0,0,0-4.52-18.68,77.67,77.67,0,0,0-3.83-8.35L12,7.94A80.66,80.66,0,0,1,29.72,4.08a63.71,63.71,0,0,1,9.15-.58,22.22,22.22,0,0,1,7.77,1.59,32.36,32.36,0,0,1,20.09,29.5c0,1.23,0,2.46,0,3.68V68.43a1.52,1.52,0,0,0,2.56,1.06C78.35,61.42,86.8,52.7,95.37,44.13c3.53-3.54,6.86-7.28,10.18-11q5.55-6.22,11.12-12.44c4.87-5.43,9.55-11,14.23-16.62l-1.06.44,55.89-1.17,16-.33C203.63,3,203.64,0,201.7,0Z"/></g><path id="Path_2" data-name="Path 2" class="cls-1" d="M27,158.05a51.74,51.74,0,0,0-5.87,4.09A50.51,50.51,0,0,0,2.61,196.62c-.07.79-.13,1.58-.16,2.38v0c-.14.95-.26,1.91-.36,2.89V144.05a108,108,0,0,0,24.93,14Z"/></g></g></g></svg>