<svg xmlns="http://www.w3.org/2000/svg" width="58.792" height="58.447" viewBox="0 0 58.792 58.447">
  <g id="Group_2" data-name="Group 2" transform="translate(-406.5 -399.486)">
    <path id="Path_1" data-name="Path 1" d="M464.791,400l-20.744.579c-2.7,3.078-3.992,4.518-4.631,5.21-.049.053-.226.245-.463.505-.426.467-1.08,1.2-1.852,2.1-.619.724-2.6,2.894-3.184,3.473l-1.737,1.737c-1.442,1.379-1.469,1.5-2.894,2.894-.706.69-1.735,1.672-3.039,2.832v-9.779h0c0-.017,0-.045,0-.078.117-3.772-3.008-8.266-7.091-9.184a11.77,11.77,0,0,0-3.763,0,23.46,23.46,0,0,0-5.5,1.158,20.917,20.917,0,0,1,1.737,4.341,22.394,22.394,0,0,1,.579,2.894c.67,5.7-2.584,11.821-3.53,13.6a14.253,14.253,0,0,0-1.68,5.494V430.8a14.616,14.616,0,0,0,8.168,11.739c.819.353,1.656.669,2.509.941a28.577,28.577,0,0,0,8.634,1.383c.067,0,.133,0,.2,0a23.848,23.848,0,0,0,3.893-.263,11.011,11.011,0,0,0,2.645-.6,7.218,7.218,0,0,1,2.359-.538h0c.01,0,.327-.014.654-.014a14.365,14.365,0,0,1,14.359,13.919,28.762,28.762,0,0,0-4.917-19.673,28.877,28.877,0,0,0-9.363-8.585c-.093-.058-.185-.11-.278-.162.067,0,.133,0,.2,0h.072a28.618,28.618,0,0,0,18.475-6.787,29.039,29.039,0,0,0,8.865-13.309A28.708,28.708,0,0,0,464.791,400Z" transform="translate(0 0)" fill="#fff" stroke="#2f2a2a" stroke-miterlimit="10" stroke-width="1"/>
    <path id="Path_2" data-name="Path 2" d="M414.681,546.293a15.044,15.044,0,0,0-1.693,1.184,14.58,14.58,0,0,0-5.357,9.957c-.02.229-.038.457-.049.689v.009c-.04.275-.075.553-.1.834V542.25a31.15,31.15,0,0,0,7.2,4.043Z" transform="translate(-0.341 -101.078)" fill="#fff" stroke="#2f2a2a" stroke-miterlimit="10" stroke-width="1"/>
  </g>
</svg>
